PathFileType	4	(X/Y/Z)	test111.trc
DataRate	CameraRate	NumFrames	NumMarkers	Units	OrigDataRate	OrigDataStartFrame	OrigNumFrames
120	120	21	27	m	120	506	1010
Frame#	Time	RHip			RKnee			RAnkle			RBigToe			RSmallToe			RHeel			LHip			LKnee			LAnkle			LBigToe			LSmallToe			LHeel			Nose			REye			LEye			RShoulder			RElbow			RWrist			RThumb			RIndex			RPinky			LShoulder			LElbow			LWrist			LThumb			LIndex			LPinky		
		X	Y	Z	X	Y	Z	X	Y	Z	X	Y	Z	X	Y	Z	X	Y	Z	X	Y	Z	X	Y	Z	X	Y	Z	X	Y	Z	X	Y	Z	X	Y	Z	X	Y	Z	X	Y	Z	X	Y	Z	X	Y	Z	X	Y	Z	X	Y	Z	X	Y	Z	X	Y	Z	X	Y	Z	X	Y	Z	X	Y	Z	X	Y	Z	X	Y	Z	X	Y	Z	X	Y	Z
506	4.216666666666667	0.007	0.232	0.907	-0.013	0.213	0.491	-0.039	0.263	0.081	-0.042	0.065	0.013	-0.075	0.104	0.018	-0.039	0.305	0.02	0.227	0.237	0.903	0.255	0.224	0.492	0.299	0.284	0.078	0.317	0.089	0.015	0.342	0.131	0.02	0.294	0.318	0.023	0.116	0.019	1.535	0.092	0.02	1.568	0.138	0.028	1.57	-0.08	0.21	1.383	-0.178	0.215	1.11	-0.27	0.12	0.892	-0.263	0.081	0.824	-0.298	0.077	0.804	-0.299	0.132	0.796	0.306	0.227	1.399	0.404	0.221	1.125	0.469	0.125	0.891	0.459	0.068	0.835	0.483	0.065	0.806	0.483	0.124	0.795
507	4.225	0.007	0.232	0.907	-0.014	0.213	0.491	-0.039	0.263	0.081	-0.041	0.066	0.013	-0.075	0.104	0.018	-0.039	0.305	0.02	0.225	0.239	0.903	0.254	0.224	0.492	0.299	0.284	0.078	0.316	0.09	0.014	0.342	0.131	0.02	0.293	0.318	0.023	0.114	0.017	1.531	0.09	0.018	1.565	0.136	0.026	1.566	-0.082	0.209	1.383	-0.181	0.215	1.11	-0.274	0.117	0.894	-0.268	0.076	0.827	-0.302	0.072	0.807	-0.303	0.128	0.799	0.303	0.227	1.4	0.404	0.221	1.126	0.471	0.124	0.894	0.463	0.065	0.838	0.486	0.061	0.81	0.486	0.122	0.798
508	4.233333333333333	0.006	0.233	0.907	-0.015	0.212	0.491	-0.039	0.262	0.081	-0.04	0.066	0.013	-0.074	0.104	0.018	-0.04	0.305	0.02	0.224	0.242	0.903	0.253	0.225	0.493	0.299	0.284	0.078	0.316	0.091	0.014	0.341	0.132	0.02	0.293	0.318	0.024	0.112	0.016	1.528	0.088	0.016	1.561	0.134	0.024	1.563	-0.084	0.209	1.382	-0.184	0.215	1.11	-0.277	0.114	0.896	-0.271	0.071	0.83	-0.306	0.068	0.809	-0.307	0.124	0.801	0.301	0.227	1.4	0.405	0.222	1.127	0.473	0.123	0.896	0.466	0.063	0.841	0.488	0.059	0.813	0.488	0.121	0.8
509	4.241666666666666	0.006	0.234	0.907	-0.017	0.212	0.491	-0.039	0.262	0.081	-0.039	0.067	0.013	-0.074	0.104	0.018	-0.04	0.305	0.02	0.222	0.245	0.904	0.253	0.225	0.493	0.299	0.284	0.078	0.315	0.092	0.014	0.341	0.133	0.02	0.293	0.317	0.025	0.109	0.015	1.524	0.086	0.014	1.558	0.132	0.022	1.559	-0.085	0.208	1.382	-0.188	0.214	1.11	-0.281	0.111	0.897	-0.275	0.066	0.833	-0.309	0.064	0.812	-0.311	0.12	0.802	0.299	0.227	1.401	0.404	0.223	1.129	0.474	0.123	0.898	0.469	0.061	0.844	0.491	0.057	0.816	0.49	0.12	0.803
510	4.25	0.005	0.235	0.906	-0.018	0.213	0.49	-0.039	0.262	0.081	-0.039	0.067	0.013	-0.074	0.104	0.018	-0.04	0.305	0.02	0.221	0.248	0.904	0.252	0.226	0.493	0.299	0.284	0.078	0.315	0.093	0.014	0.341	0.134	0.02	0.292	0.317	0.025	0.107	0.013	1.521	0.084	0.011	1.554	0.13	0.02	1.556	-0.087	0.207	1.382	-0.191	0.214	1.111	-0.284	0.109	0.898	-0.279	0.063	0.835	-0.313	0.061	0.813	-0.315	0.117	0.803	0.296	0.227	1.401	0.404	0.224	1.13	0.475	0.123	0.901	0.471	0.059	0.847	0.493	0.055	0.82	0.492	0.12	0.805
511	4.258333333333334	0.005	0.237	0.906	-0.019	0.213	0.49	-0.039	0.262	0.08	-0.038	0.068	0.013	-0.074	0.104	0.017	-0.04	0.305	0.02	0.219	0.251	0.904	0.252	0.226	0.494	0.299	0.283	0.079	0.315	0.093	0.014	0.34	0.134	0.02	0.292	0.317	0.026	0.104	0.012	1.517	0.082	0.009	1.551	0.128	0.019	1.552	-0.089	0.206	1.381	-0.194	0.214	1.11	-0.287	0.107	0.899	-0.282	0.059	0.837	-0.316	0.058	0.815	-0.319	0.115	0.804	0.294	0.228	1.402	0.404	0.225	1.131	0.476	0.123	0.902	0.473	0.058	0.85	0.494	0.055	0.823	0.492	0.12	0.808
512	4.266666666666667	0.004	0.239	0.906	-0.02	0.213	0.49	-0.039	0.262	0.08	-0.038	0.068	0.013	-0.074	0.104	0.017	-0.04	0.304	0.021	0.217	0.254	0.905	0.251	0.227	0.494	0.299	0.283	0.079	0.314	0.094	0.013	0.34	0.135	0.02	0.291	0.316	0.027	0.102	0.011	1.513	0.08	0.006	1.547	0.126	0.017	1.549	-0.09	0.205	1.381	-0.197	0.214	1.11	-0.29	0.106	0.899	-0.285	0.057	0.838	-0.319	0.056	0.815	-0.322	0.113	0.805	0.292	0.228	1.402	0.403	0.226	1.132	0.477	0.124	0.904	0.475	0.057	0.853	0.496	0.055	0.826	0.493	0.121	0.81
513	4.275	0.002	0.242	0.906	-0.021	0.214	0.489	-0.039	0.262	0.08	-0.038	0.068	0.013	-0.074	0.104	0.017	-0.04	0.304	0.021	0.216	0.257	0.905	0.251	0.227	0.494	0.298	0.283	0.079	0.314	0.094	0.013	0.34	0.135	0.02	0.291	0.316	0.027	0.1	0.009	1.51	0.078	0.004	1.543	0.124	0.015	1.545	-0.092	0.204	1.38	-0.2	0.213	1.11	-0.292	0.105	0.899	-0.287	0.055	0.839	-0.321	0.054	0.816	-0.325	0.111	0.805	0.289	0.228	1.402	0.402	0.228	1.133	0.477	0.126	0.906	0.476	0.057	0.856	0.496	0.056	0.828	0.493	0.123	0.813
514	4.283333333333333	0.001	0.246	0.906	-0.022	0.215	0.489	-0.04	0.262	0.08	-0.038	0.068	0.012	-0.074	0.104	0.017	-0.04	0.304	0.021	0.214	0.261	0.906	0.251	0.228	0.495	0.298	0.283	0.079	0.314	0.095	0.013	0.34	0.136	0.02	0.29	0.316	0.028	0.097	0.008	1.506	0.075	0.002	1.54	0.122	0.013	1.542	-0.094	0.203	1.379	-0.202	0.213	1.109	-0.295	0.104	0.899	-0.29	0.053	0.84	-0.324	0.053	0.816	-0.328	0.109	0.805	0.287	0.228	1.402	0.401	0.23	1.133	0.477	0.127	0.907	0.477	0.058	0.858	0.497	0.057	0.831	0.493	0.125	0.815
515	4.291666666666667	0.0	0.249	0.907	-0.023	0.216	0.488	-0.04	0.262	0.08	-0.039	0.068	0.012	-0.075	0.104	0.017	-0.04	0.304	0.021	0.213	0.265	0.906	0.25	0.229	0.495	0.297	0.283	0.08	0.314	0.095	0.013	0.34	0.136	0.02	0.289	0.315	0.028	0.095	0.006	1.503	0.073	0.0	1.537	0.12	0.012	1.539	-0.096	0.202	1.378	-0.205	0.213	1.109	-0.297	0.103	0.899	-0.292	0.052	0.84	-0.326	0.052	0.815	-0.331	0.108	0.805	0.284	0.228	1.402	0.399	0.232	1.134	0.476	0.129	0.908	0.477	0.059	0.86	0.497	0.059	0.833	0.492	0.127	0.816
516	4.3	-0.002	0.253	0.907	-0.024	0.217	0.488	-0.04	0.262	0.079	-0.039	0.068	0.012	-0.075	0.104	0.017	-0.04	0.304	0.021	0.212	0.268	0.907	0.25	0.229	0.496	0.297	0.283	0.08	0.314	0.095	0.013	0.341	0.136	0.02	0.288	0.315	0.029	0.093	0.004	1.5	0.071	-0.002	1.533	0.118	0.01	1.535	-0.098	0.2	1.377	-0.207	0.212	1.108	-0.299	0.103	0.898	-0.293	0.051	0.84	-0.328	0.051	0.815	-0.333	0.107	0.805	0.282	0.228	1.402	0.398	0.235	1.134	0.475	0.131	0.909	0.477	0.061	0.861	0.496	0.061	0.835	0.491	0.129	0.818
517	4.308333333333334	-0.003	0.257	0.907	-0.025	0.218	0.488	-0.04	0.262	0.079	-0.039	0.069	0.012	-0.075	0.105	0.017	-0.04	0.304	0.021	0.211	0.272	0.907	0.25	0.23	0.496	0.296	0.282	0.08	0.314	0.094	0.013	0.341	0.136	0.02	0.287	0.314	0.029	0.09	0.003	1.496	0.068	-0.004	1.53	0.116	0.008	1.532	-0.099	0.199	1.376	-0.21	0.212	1.107	-0.3	0.103	0.897	-0.295	0.05	0.839	-0.33	0.051	0.814	-0.334	0.106	0.804	0.279	0.228	1.403	0.396	0.237	1.135	0.474	0.134	0.91	0.476	0.063	0.863	0.495	0.064	0.836	0.49	0.133	0.819
518	4.316666666666666	-0.004	0.261	0.907	-0.026	0.219	0.488	-0.04	0.262	0.079	-0.04	0.069	0.012	-0.075	0.105	0.017	-0.04	0.304	0.021	0.21	0.275	0.907	0.25	0.231	0.497	0.295	0.282	0.081	0.314	0.094	0.013	0.341	0.136	0.02	0.286	0.314	0.03	0.088	0.001	1.493	0.066	-0.006	1.526	0.114	0.006	1.529	-0.101	0.197	1.375	-0.212	0.212	1.106	-0.302	0.103	0.895	-0.296	0.05	0.838	-0.331	0.051	0.813	-0.336	0.106	0.803	0.277	0.228	1.403	0.394	0.24	1.135	0.473	0.137	0.911	0.475	0.065	0.864	0.493	0.067	0.838	0.488	0.136	0.821
519	4.325	-0.006	0.265	0.907	-0.026	0.22	0.488	-0.04	0.262	0.079	-0.04	0.069	0.013	-0.075	0.105	0.017	-0.04	0.304	0.022	0.209	0.279	0.907	0.249	0.232	0.497	0.294	0.282	0.081	0.315	0.093	0.013	0.342	0.136	0.02	0.285	0.313	0.03	0.086	0.0	1.49	0.063	-0.008	1.523	0.111	0.005	1.525	-0.103	0.196	1.374	-0.214	0.212	1.105	-0.303	0.103	0.894	-0.296	0.05	0.837	-0.332	0.051	0.811	-0.337	0.106	0.802	0.274	0.228	1.403	0.391	0.243	1.135	0.471	0.141	0.911	0.473	0.069	0.864	0.491	0.071	0.838	0.486	0.14	0.821
520	4.333333333333333	-0.007	0.269	0.906	-0.027	0.221	0.488	-0.041	0.262	0.078	-0.04	0.07	0.013	-0.075	0.105	0.017	-0.04	0.304	0.022	0.208	0.283	0.907	0.249	0.234	0.498	0.292	0.282	0.081	0.315	0.093	0.013	0.342	0.135	0.02	0.283	0.313	0.03	0.083	0.0	1.486	0.061	-0.01	1.519	0.109	0.003	1.522	-0.105	0.194	1.373	-0.216	0.211	1.104	-0.304	0.103	0.892	-0.297	0.05	0.836	-0.333	0.052	0.81	-0.338	0.106	0.801	0.272	0.228	1.403	0.389	0.247	1.136	0.469	0.145	0.911	0.471	0.073	0.865	0.489	0.075	0.839	0.484	0.144	0.822
521	4.341666666666667	-0.007	0.273	0.906	-0.027	0.222	0.488	-0.041	0.262	0.078	-0.04	0.071	0.013	-0.075	0.106	0.017	-0.04	0.304	0.022	0.208	0.286	0.908	0.249	0.235	0.499	0.291	0.281	0.082	0.316	0.093	0.013	0.343	0.135	0.021	0.281	0.312	0.031	0.081	-0.002	1.483	0.058	-0.012	1.516	0.107	0.001	1.519	-0.107	0.192	1.372	-0.218	0.211	1.102	-0.305	0.104	0.89	-0.297	0.051	0.834	-0.334	0.053	0.808	-0.338	0.107	0.799	0.27	0.227	1.403	0.386	0.25	1.136	0.466	0.149	0.912	0.469	0.077	0.865	0.486	0.08	0.839	0.481	0.148	0.822
522	4.35	-0.008	0.276	0.906	-0.027	0.222	0.488	-0.041	0.263	0.078	-0.04	0.071	0.013	-0.075	0.106	0.017	-0.04	0.304	0.022	0.207	0.29	0.908	0.249	0.237	0.499	0.29	0.282	0.082	0.316	0.092	0.014	0.343	0.135	0.021	0.279	0.312	0.031	0.079	-0.003	1.48	0.056	-0.014	1.512	0.104	0.0	1.516	-0.108	0.191	1.37	-0.22	0.211	1.101	-0.306	0.105	0.888	-0.297	0.052	0.832	-0.335	0.054	0.806	-0.338	0.108	0.797	0.268	0.227	1.404	0.384	0.254	1.137	0.464	0.154	0.912	0.466	0.082	0.865	0.484	0.085	0.839	0.479	0.153	0.822
523	4.358333333333333	-0.007	0.28	0.907	-0.028	0.223	0.488	-0.041	0.263	0.078	-0.039	0.072	0.013	-0.075	0.107	0.017	-0.039	0.304	0.022	0.207	0.293	0.908	0.249	0.239	0.5	0.288	0.282	0.082	0.317	0.093	0.014	0.343	0.136	0.022	0.277	0.312	0.031	0.076	-0.004	1.477	0.053	-0.016	1.509	0.102	-0.001	1.513	-0.11	0.189	1.369	-0.222	0.211	1.1	-0.306	0.106	0.886	-0.297	0.054	0.829	-0.335	0.056	0.804	-0.338	0.11	0.795	0.265	0.227	1.404	0.381	0.257	1.138	0.461	0.159	0.912	0.463	0.088	0.864	0.481	0.091	0.838	0.476	0.158	0.822
524	4.366666666666666	-0.007	0.284	0.907	-0.027	0.224	0.488	-0.041	0.263	0.078	-0.039	0.073	0.013	-0.075	0.108	0.017	-0.039	0.304	0.023	0.207	0.297	0.909	0.248	0.241	0.5	0.286	0.282	0.082	0.317	0.093	0.015	0.343	0.136	0.022	0.275	0.313	0.031	0.074	-0.006	1.473	0.05	-0.017	1.506	0.099	-0.003	1.51	-0.111	0.187	1.367	-0.224	0.211	1.098	-0.307	0.108	0.883	-0.297	0.056	0.826	-0.335	0.058	0.801	-0.338	0.112	0.792	0.263	0.227	1.404	0.378	0.261	1.138	0.458	0.164	0.912	0.46	0.094	0.864	0.477	0.097	0.837	0.473	0.164	0.821
525	4.375	-0.006	0.289	0.907	-0.027	0.225	0.488	-0.041	0.264	0.078	-0.039	0.074	0.013	-0.075	0.108	0.017	-0.039	0.304	0.023	0.207	0.3	0.909	0.248	0.244	0.501	0.284	0.283	0.082	0.317	0.094	0.016	0.344	0.138	0.023	0.272	0.314	0.03	0.071	-0.007	1.47	0.047	-0.019	1.502	0.097	-0.004	1.507	-0.113	0.186	1.366	-0.225	0.212	1.097	-0.307	0.11	0.88	-0.298	0.06	0.823	-0.335	0.061	0.798	-0.338	0.115	0.789	0.261	0.227	1.404	0.375	0.265	1.139	0.455	0.169	0.911	0.457	0.1	0.863	0.474	0.104	0.836	0.47	0.169	0.82
526	4.383333333333334	-0.004	0.293	0.907	-0.027	0.226	0.488	-0.041	0.264	0.078	-0.039	0.075	0.013	-0.075	0.109	0.017	-0.039	0.304	0.023	0.207	0.304	0.909	0.248	0.247	0.501	0.282	0.285	0.082	0.317	0.096	0.017	0.343	0.14	0.024	0.27	0.315	0.03	0.068	-0.008	1.467	0.044	-0.02	1.499	0.094	-0.006	1.504	-0.114	0.184	1.364	-0.226	0.212	1.095	-0.307	0.113	0.877	-0.298	0.064	0.82	-0.335	0.064	0.795	-0.338	0.118	0.786	0.26	0.227	1.404	0.372	0.268	1.14	0.452	0.175	0.911	0.453	0.107	0.862	0.471	0.11	0.834	0.467	0.175	0.819
